<?xml version="1.0" standalone="no"?>
<!DOCTYPE svg PUBLIC "-//W3C//DTD SVG 20010904//EN"
 "http://www.w3.org/TR/2001/REC-SVG-20010904/DTD/svg10.dtd">
<svg version="1.0" xmlns="http://www.w3.org/2000/svg"
 width="431.000000pt" height="198.000000pt" viewBox="0 0 431.000000 198.000000"
 preserveAspectRatio="xMidYMid meet">

<g transform="translate(0.000000,198.000000) scale(0.100000,-0.100000)"
fill="#000000" stroke="none">
<path d="M797 1529 c-151 -36 -258 -169 -288 -359 -27 -176 51 -364 173 -414
130 -55 303 -12 375 93 16 22 31 40 36 41 4 0 7 -18 7 -40 0 -55 24 -107 54
-121 30 -14 56 -6 56 18 0 28 57 255 76 302 9 22 20 41 24 41 4 0 10 -55 11
-122 5 -152 22 -195 87 -218 56 -19 89 -6 127 51 l31 45 14 -31 c8 -16 31 -40
50 -53 64 -43 142 -13 178 68 l15 35 9 -32 c17 -63 95 -101 149 -73 10 6 32
34 48 62 l29 51 11 -39 c14 -52 43 -82 87 -90 50 -9 80 16 125 105 l36 72 17
-40 c23 -49 80 -105 128 -125 130 -55 303 -12 375 93 16 22 31 40 36 41 4 0 7
-18 7 -40 0 -55 24 -107 54 -121 30 -14 56 -6 56 18 0 28 57 255 76 302 9 22
20 41 25 41 5 0 9 -45 9 -101 0 -165 28 -230 106 -245 51 -9 81 9 120 73 l31
52 12 -39 c14 -48 43 -70 91 -70 40 0 66 22 105 86 l22 37 6 -40 c9 -54 40
-91 82 -99 64 -12 115 44 160 175 30 88 31 101 8 101 -13 0 -25 -21 -46 -79
-15 -44 -37 -91 -49 -106 -18 -23 -23 -25 -35 -12 -22 22 -33 148 -25 292 l7
130 50 5 c46 5 50 7 53 33 3 26 2 27 -47 27 l-50 0 6 50 c5 46 4 50 -21 61
-20 9 -32 9 -51 1 -28 -13 -30 -18 -40 -74 -5 -35 -8 -37 -48 -40 -38 -3 -42
-6 -45 -30 -3 -27 -1 -28 40 -28 l43 0 -3 -127 c-2 -109 -6 -138 -27 -193 -34
-86 -50 -108 -73 -94 -25 16 -34 85 -27 218 4 83 2 122 -6 132 -13 16 -85 19
-94 4 -4 -6 -10 -66 -14 -133 -6 -107 -11 -129 -37 -182 -16 -33 -37 -61 -46
-63 -31 -6 -42 38 -46 193 -5 176 -12 195 -71 195 -65 0 -110 -67 -143 -212
-15 -64 -28 -43 -28 47 0 62 4 79 35 137 65 121 77 263 29 335 -13 20 -20 23
-52 17 -65 -11 -71 -14 -81 -52 -13 -47 -31 -279 -31 -395 0 -98 -9 -124 -67
-188 -54 -60 -104 -82 -174 -77 -108 8 -176 80 -205 218 -43 209 72 440 222
443 38 0 51 -4 67 -24 26 -32 19 -110 -12 -143 l-22 -24 22 -16 c78 -54 171
41 140 144 -27 91 -105 138 -212 126 -163 -17 -279 -124 -330 -307 -7 -24 -13
-96 -13 -159 -1 -108 -3 -119 -34 -182 -34 -69 -49 -80 -73 -52 -16 19 -24
208 -14 328 l7 86 48 0 c37 0 49 4 52 18 9 32 -3 42 -49 42 l-46 0 6 45 c5 50
-9 75 -44 75 -41 0 -58 -19 -65 -70 l-7 -50 -43 0 c-34 0 -44 -4 -49 -20 -9
-30 2 -40 45 -40 l39 0 -5 -147 c-6 -139 -8 -152 -38 -213 -17 -36 -37 -65
-46 -65 -32 0 -41 46 -38 195 1 80 -2 152 -6 159 -5 8 -26 12 -60 10 -28 -1
-64 3 -81 10 -24 10 -40 11 -75 1 -82 -21 -129 -87 -149 -208 -12 -73 -59
-175 -83 -180 -31 -6 -42 38 -46 193 -5 176 -12 195 -71 195 -65 0 -110 -67
-143 -212 -15 -64 -28 -43 -28 47 0 62 4 79 35 137 65 121 77 263 29 335 -13
20 -20 23 -52 17 -65 -11 -71 -14 -81 -52 -13 -47 -31 -279 -31 -395 0 -98 -9
-124 -67 -188 -54 -60 -104 -82 -174 -77 -108 8 -176 80 -205 218 -43 209 72
440 222 443 38 0 51 -4 67 -24 26 -32 19 -110 -12 -143 l-22 -24 22 -16 c77
-54 171 41 141 143 -32 105 -133 151 -265 120z m434 -228 c-5 -31 -14 -67 -20
-81 -9 -20 -10 -8 -6 55 3 44 9 98 12 120 l7 40 8 -39 c4 -21 4 -63 -1 -95z
m1780 0 c-5 -31 -14 -67 -20 -81 -9 -20 -10 -8 -6 55 3 44 9 98 12 120 l7 40
8 -39 c4 -21 4 -63 -1 -95z m-1210 -162 c23 -23 21 -64 -7 -203 -21 -107 -63
-155 -100 -115 -38 42 -15 252 33 309 29 35 46 37 74 9z"/>
<path d="M3372 1336 c-23 -30 -19 -60 11 -81 29 -20 53 -19 77 5 37 37 19 85
-36 96 -26 5 -35 1 -52 -20z"/>
</g>
</svg>
